<svg width="68" height="45" viewBox="0 0 68 45" fill="none" xmlns="http://www.w3.org/2000/svg">
<mask id="path-1-inside-1_29_62" fill="white">
<path d="M5.575 43.5944C3.66061 44.2455 1.5599 43.2236 1.11953 41.25C0.215564 37.1989 0.0631734 33.0052 0.681272 28.8796C1.4807 23.5437 3.54578 18.4767 6.70389 14.1021C9.862 9.72743 14.0214 6.17231 18.8344 3.73386C23.6474 1.2954 28.9742 0.044468 34.3695 0.0856012C39.7648 0.126738 45.0719 1.45875 49.8471 3.97031C54.6224 6.48187 58.7271 10.1 61.8181 14.5223C64.9092 18.9445 66.8968 24.0425 67.6147 29.39C68.1698 33.5245 67.9535 37.7153 66.9879 41.7522C66.5175 43.7188 64.4014 44.7086 62.4972 44.0284C60.593 43.3481 59.6278 41.2545 60.0391 39.2747C60.6462 36.3525 60.7567 33.3398 60.3572 30.3644C59.7948 26.1753 58.2377 22.1817 55.8163 18.7174C53.3948 15.2531 50.1793 12.4187 46.4385 10.4512C42.6977 8.48373 38.5402 7.44025 34.3137 7.40803C30.0871 7.37581 25.9142 8.35576 22.1438 10.266C18.3734 12.1762 15.1151 14.9612 12.6411 18.3882C10.1671 21.8152 8.54934 25.7846 7.92309 29.9646C7.47827 32.9336 7.54284 35.9476 8.1053 38.8787C8.48637 40.8646 7.48938 42.9433 5.575 43.5944Z"/>
</mask>
<path d="M5.575 43.5944C3.66061 44.2455 1.5599 43.2236 1.11953 41.25C0.215564 37.1989 0.0631734 33.0052 0.681272 28.8796C1.4807 23.5437 3.54578 18.4767 6.70389 14.1021C9.862 9.72743 14.0214 6.17231 18.8344 3.73386C23.6474 1.2954 28.9742 0.044468 34.3695 0.0856012C39.7648 0.126738 45.0719 1.45875 49.8471 3.97031C54.6224 6.48187 58.7271 10.1 61.8181 14.5223C64.9092 18.9445 66.8968 24.0425 67.6147 29.39C68.1698 33.5245 67.9535 37.7153 66.9879 41.7522C66.5175 43.7188 64.4014 44.7086 62.4972 44.0284C60.593 43.3481 59.6278 41.2545 60.0391 39.2747C60.6462 36.3525 60.7567 33.3398 60.3572 30.3644C59.7948 26.1753 58.2377 22.1817 55.8163 18.7174C53.3948 15.2531 50.1793 12.4187 46.4385 10.4512C42.6977 8.48373 38.5402 7.44025 34.3137 7.40803C30.0871 7.37581 25.9142 8.35576 22.1438 10.266C18.3734 12.1762 15.1151 14.9612 12.6411 18.3882C10.1671 21.8152 8.54934 25.7846 7.92309 29.9646C7.47827 32.9336 7.54284 35.9476 8.1053 38.8787C8.48637 40.8646 7.48938 42.9433 5.575 43.5944Z" stroke="#3D43CF" stroke-width="8" mask="url(#path-1-inside-1_29_62)"/>
</svg>
