<svg width="109" height="56" viewBox="0 0 109 56" fill="none" xmlns="http://www.w3.org/2000/svg">
<path d="M13.362 40.238C11.1407 40.238 9.10067 39.7167 7.242 38.674C5.38333 37.6313 3.91 36.192 2.822 34.356C1.734 32.4973 1.19 30.4007 1.19 28.066C1.19 25.754 1.734 23.68 2.822 21.844C3.91 19.9853 5.38333 18.5347 7.242 17.492C9.10067 16.4493 11.1407 15.928 13.362 15.928C15.606 15.928 17.646 16.4493 19.482 17.492C21.3407 18.5347 22.8027 19.9853 23.868 21.844C24.956 23.68 25.5 25.754 25.5 28.066C25.5 30.4007 24.956 32.4973 23.868 34.356C22.8027 36.192 21.3407 37.6313 19.482 38.674C17.6233 39.7167 15.5833 40.238 13.362 40.238ZM13.362 35.988C14.79 35.988 16.048 35.6707 17.136 35.036C18.224 34.3787 19.074 33.4493 19.686 32.248C20.298 31.0467 20.604 29.6527 20.604 28.066C20.604 26.4793 20.298 25.0967 19.686 23.918C19.074 22.7167 18.224 21.7987 17.136 21.164C16.048 20.5293 14.79 20.212 13.362 20.212C11.934 20.212 10.6647 20.5293 9.554 21.164C8.466 21.7987 7.616 22.7167 7.004 23.918C6.392 25.0967 6.086 26.4793 6.086 28.066C6.086 29.6527 6.392 31.0467 7.004 32.248C7.616 33.4493 8.466 34.3787 9.554 35.036C10.6647 35.6707 11.934 35.988 13.362 35.988ZM70.856 30.174C70.856 30.854 70.8107 31.466 70.72 32.01H56.95C57.0633 33.37 57.5393 34.4353 58.378 35.206C59.2167 35.9767 60.248 36.362 61.472 36.362C63.24 36.362 64.498 35.6027 65.246 34.084H70.38C69.836 35.8973 68.7933 37.3933 67.252 38.572C65.7107 39.728 63.818 40.306 61.574 40.306C59.7607 40.306 58.1287 39.9093 56.678 39.116C55.25 38.3 54.128 37.1553 53.312 35.682C52.5187 34.2087 52.122 32.5087 52.122 30.582C52.122 28.6327 52.5187 26.9213 53.312 25.448C54.1053 23.9747 55.216 22.8413 56.644 22.048C58.072 21.2547 59.7153 20.858 61.574 20.858C63.3647 20.858 64.9627 21.2433 66.368 22.014C67.796 22.7847 68.8953 23.884 69.666 25.312C70.4593 26.7173 70.856 28.338 70.856 30.174ZM65.926 28.814C65.9033 27.59 65.4613 26.6153 64.6 25.89C63.7387 25.142 62.6847 24.768 61.438 24.768C60.2593 24.768 59.262 25.1307 58.446 25.856C57.6527 26.5587 57.1653 27.5447 56.984 28.814H65.926ZM73.1064 30.514C73.1064 28.61 73.4804 26.9213 74.2284 25.448C74.999 23.9747 76.0304 22.8413 77.3224 22.048C78.637 21.2547 80.099 20.858 81.7084 20.858C83.1137 20.858 84.3377 21.1413 85.3804 21.708C86.4457 22.2747 87.2957 22.9887 87.9304 23.85V21.164H92.7244V40H87.9304V37.246C87.3184 38.13 86.4684 38.8667 85.3804 39.456C84.315 40.0227 83.0797 40.306 81.6744 40.306C80.0877 40.306 78.637 39.898 77.3224 39.082C76.0304 38.266 74.999 37.1213 74.2284 35.648C73.4804 34.152 73.1064 32.4407 73.1064 30.514ZM87.9304 30.582C87.9304 29.426 87.7037 28.44 87.2504 27.624C86.797 26.7853 86.185 26.1507 85.4144 25.72C84.6437 25.2667 83.8164 25.04 82.9324 25.04C82.0484 25.04 81.2324 25.2553 80.4844 25.686C79.7364 26.1167 79.1244 26.7513 78.6484 27.59C78.195 28.406 77.9684 29.3807 77.9684 30.514C77.9684 31.6473 78.195 32.6447 78.6484 33.506C79.1244 34.3447 79.7364 34.9907 80.4844 35.444C81.255 35.8973 82.071 36.124 82.9324 36.124C83.8164 36.124 84.6437 35.9087 85.4144 35.478C86.185 35.0247 86.797 34.39 87.2504 33.574C87.7037 32.7353 87.9304 31.738 87.9304 30.582ZM102.133 24.088C102.745 23.0907 103.539 22.3087 104.513 21.742C105.511 21.1753 106.644 20.892 107.913 20.892V25.89H106.655C105.159 25.89 104.026 26.2413 103.255 26.944C102.507 27.6467 102.133 28.8707 102.133 30.616V40H97.3733V21.164H102.133V24.088Z" fill="white"/>
<path d="M32 19.4L38.3204 35L44.8447 19.4L53 15" stroke="white" stroke-width="5"/>
</svg>
