<svg width="73" height="56" viewBox="0 0 73 56" fill="none" xmlns="http://www.w3.org/2000/svg">
<path d="M14.586 40L9.35 30.752H7.106V40H2.346V16.268H11.254C13.09 16.268 14.654 16.5967 15.946 17.254C17.238 17.8887 18.2013 18.7613 18.836 19.872C19.4933 20.96 19.822 22.184 19.822 23.544C19.822 25.108 19.3687 26.5247 18.462 27.794C17.5553 29.0407 16.2067 29.902 14.416 30.378L20.094 40H14.586ZM7.106 27.182H11.084C12.376 27.182 13.3393 26.876 13.974 26.264C14.6087 25.6293 14.926 24.7567 14.926 23.646C14.926 22.558 14.6087 21.7193 13.974 21.13C13.3393 20.518 12.376 20.212 11.084 20.212H7.106V27.182ZM26.5413 18.92C25.7026 18.92 24.9999 18.6593 24.4333 18.138C23.8893 17.594 23.6173 16.9253 23.6173 16.132C23.6173 15.3387 23.8893 14.6813 24.4333 14.16C24.9999 13.616 25.7026 13.344 26.5413 13.344C27.3799 13.344 28.0713 13.616 28.6153 14.16C29.1819 14.6813 29.4653 15.3387 29.4653 16.132C29.4653 16.9253 29.1819 17.594 28.6153 18.138C28.0713 18.6593 27.3799 18.92 26.5413 18.92ZM28.8873 21.164V40H24.1273V21.164H28.8873ZM44.7421 40L38.3501 31.976V40H33.5901V14.84H38.3501V29.154L44.6741 21.164H50.8621L42.5661 30.616L50.9301 40H44.7421ZM61.8096 40.306C59.9963 40.306 58.3643 39.9093 56.9136 39.116C55.4629 38.3 54.3183 37.1553 53.4796 35.682C52.6636 34.2087 52.2556 32.5087 52.2556 30.582C52.2556 28.6553 52.6749 26.9553 53.5136 25.482C54.3749 24.0087 55.5423 22.8753 57.0156 22.082C58.4889 21.266 60.1323 20.858 61.9456 20.858C63.7589 20.858 65.4023 21.266 66.8756 22.082C68.3489 22.8753 69.5049 24.0087 70.3436 25.482C71.2049 26.9553 71.6356 28.6553 71.6356 30.582C71.6356 32.5087 71.1936 34.2087 70.3096 35.682C69.4483 37.1553 68.2696 38.3 66.7736 39.116C65.3003 39.9093 63.6456 40.306 61.8096 40.306ZM61.8096 36.158C62.6709 36.158 63.4756 35.954 64.2236 35.546C64.9943 35.1153 65.6063 34.4807 66.0596 33.642C66.5129 32.8033 66.7396 31.7833 66.7396 30.582C66.7396 28.7913 66.2636 27.42 65.3116 26.468C64.3823 25.4933 63.2376 25.006 61.8776 25.006C60.5176 25.006 59.3729 25.4933 58.4436 26.468C57.5369 27.42 57.0836 28.7913 57.0836 30.582C57.0836 32.3727 57.5256 33.7553 58.4096 34.73C59.3163 35.682 60.4496 36.158 61.8096 36.158Z" fill="white"/>
</svg>
