<svg width="10" height="10" viewBox="0 0 10 10" fill="none" xmlns="http://www.w3.org/2000/svg">
<path d="M9.975 4.3025C9.93502 4.467 9.84818 4.61637 9.725 4.7325L8.075 6.3425C8.05814 6.35991 8.04459 6.38024 8.035 6.4025C8.02948 6.42551 8.02948 6.44949 8.035 6.4725L8.425 8.7525C8.4575 8.9205 8.44 9.0945 8.375 9.2525C8.31478 9.40882 8.2084 9.54311 8.07 9.6375C7.93553 9.73675 7.77644 9.79727 7.61 9.8125H7.545C7.39854 9.81219 7.25437 9.77615 7.125 9.7075L5.075 8.6375C5.05372 8.62521 5.02958 8.61874 5.005 8.61874C4.98042 8.61874 4.95628 8.62521 4.935 8.6375L2.885 9.7125C2.73105 9.7925 2.55813 9.82881 2.385 9.8175C2.21683 9.80317 2.05589 9.7426 1.92 9.6425C1.78291 9.54457 1.677 9.40915 1.615 9.2525C1.5512 9.09396 1.53386 8.92053 1.565 8.7525L1.955 6.4775C1.96227 6.45473 1.96227 6.43027 1.955 6.4075C1.94692 6.38561 1.93508 6.36531 1.92 6.3475L0.27 4.7275C0.150555 4.61125 0.0657372 4.46412 0.0249999 4.3025C-0.0236328 4.13938 -0.0236328 3.96562 0.0249999 3.8025C0.0799673 3.64195 0.178968 3.50009 0.3107 3.39311C0.442432 3.28614 0.601588 3.21835 0.77 3.1975L3.02 2.8675C3.04242 2.86693 3.06381 2.85802 3.08 2.8425C3.09919 2.82804 3.11462 2.80917 3.125 2.7875L4.175 0.6975C4.2465 0.5475 4.3595 0.421 4.5 0.3325C4.60679 0.26506 4.72665 0.220989 4.8517 0.203183C4.97674 0.185377 5.10414 0.194239 5.22552 0.229187C5.34689 0.264136 5.45949 0.324379 5.55592 0.405955C5.65235 0.487532 5.73042 0.588595 5.785 0.7025L6.825 2.7825C6.83756 2.80559 6.85455 2.82598 6.875 2.8425C6.89297 2.85835 6.91604 2.86722 6.94 2.8675L9.225 3.1975C9.391 3.2225 9.547 3.2935 9.675 3.4025C9.8005 3.511 9.8955 3.6505 9.95 3.8075C10.003 3.9675 10.012 4.1385 9.975 4.3025Z" fill="#DE9550"/>
</svg>
