<?xml version="1.0" standalone="no"?>
<!DOCTYPE svg PUBLIC "-//W3C//DTD SVG 20010904//EN"
 "http://www.w3.org/TR/2001/REC-SVG-20010904/DTD/svg10.dtd">
<svg version="1.0" xmlns="http://www.w3.org/2000/svg"
 width="32.000000pt" height="32.000000pt" viewBox="0 0 32.000000 32.000000"
 preserveAspectRatio="xMidYMid meet">

<g transform="translate(0.000000,32.000000) scale(0.100000,-0.100000)"
fill="#505050" stroke="none">
<path d="M91 292 c-50 -25 -74 -63 -79 -124 -3 -44 0 -59 20 -88 59 -88 190
-92 251 -8 28 38 33 114 10 158 -38 73 -127 101 -202 62z m104 -57 c0 -13 -8
-21 -22 -23 -19 -3 -23 1 -23 23 0 22 4 26 23 23 14 -2 22 -10 22 -23z m-11
-64 c3 -4 1 -23 -4 -42 -7 -23 -7 -35 0 -37 20 -7 -2 -22 -31 -22 -28 0 -29 1
-26 48 1 26 7 50 12 54 14 10 43 10 49 -1z"/>
</g>
</svg>
